<svg xmlns="http://www.w3.org/2000/svg" width="1800" height="1100" viewBox="0 0 1800 1100">
  <defs>
    <style>
      .page { fill: #ffffff; stroke: #d1d5db; stroke-width: 2; }
      .module { fill: #ffffff; stroke: #111827; stroke-width: 2.2; rx: 14; ry: 14; }
      .hub { fill: #f8fafc; stroke: #111827; stroke-width: 2.6; rx: 16; ry: 16; }
      .core { fill: #eef2ff; stroke: #111827; stroke-width: 3; rx: 18; ry: 18; }
      .line { stroke: #374151; stroke-width: 3; fill: none; }
      .label { font-family: "Microsoft YaHei", "PingFang SC", "Noto Sans SC", sans-serif; font-size: 24px; font-weight: 600; fill: #111827; text-anchor: middle; dominant-baseline: middle; }
      .sub { font-family: "Microsoft YaHei", "PingFang SC", "Noto Sans SC", sans-serif; font-size: 18px; font-weight: 600; fill: #475569; text-anchor: middle; }
      .caption { font-family: "Microsoft YaHei", "PingFang SC", "Noto Sans SC", sans-serif; font-size: 32px; font-weight: 700; fill: #111827; text-anchor: middle; }
    </style>
  </defs>

  <rect class="page" x="20" y="20" width="1760" height="1060" />

  <text class="sub" x="900" y="48">基于 Spring Boot 的在线评测系统功能结构图</text>

  <line class="line" x1="135" y1="260" x2="1605" y2="260" />
  <line class="line" x1="115" y1="760" x2="1595" y2="760" />

  <line class="line" x1="900" y1="260" x2="900" y2="320" />
  <line class="line" x1="900" y1="410" x2="900" y2="450" />
  <line class="line" x1="900" y1="560" x2="900" y2="610" />
  <line class="line" x1="900" y1="700" x2="900" y2="760" />

  <rect class="hub" x="790" y="320" width="220" height="90" />
  <text class="label" x="900" y="365">用户端</text>

  <rect class="core" x="710" y="450" width="380" height="110" />
  <text class="label" x="900" y="505">程序设计评测系统</text>

  <rect class="hub" x="760" y="610" width="280" height="90" />
  <text class="label" x="900" y="646">教师端 /</text>
  <text class="label" x="900" y="678">管理端</text>

  <rect class="module" x="60" y="60" width="150" height="150" />
  <line class="line" x1="135" y1="210" x2="135" y2="260" />
  <text class="label" x="135" y="118">登录注册</text>
  <text class="label" x="135" y="156">模块</text>

  <rect class="module" x="270" y="60" width="150" height="150" />
  <line class="line" x1="345" y1="210" x2="345" y2="260" />
  <text class="label" x="345" y="118">首页指挥舱</text>
  <text class="label" x="345" y="156">模块</text>

  <rect class="module" x="480" y="60" width="150" height="150" />
  <line class="line" x1="555" y1="210" x2="555" y2="260" />
  <text class="label" x="555" y="118">题库中心</text>
  <text class="label" x="555" y="156">模块</text>

  <rect class="module" x="690" y="60" width="150" height="150" />
  <line class="line" x1="765" y1="210" x2="765" y2="260" />
  <text class="label" x="765" y="118">代码工坊</text>
  <text class="label" x="765" y="156">模块</text>

  <rect class="module" x="900" y="60" width="150" height="150" />
  <line class="line" x1="975" y1="210" x2="975" y2="260" />
  <text class="label" x="975" y="118">赛事中枢</text>
  <text class="label" x="975" y="156">模块</text>

  <rect class="module" x="1110" y="60" width="150" height="150" />
  <line class="line" x1="1185" y1="210" x2="1185" y2="260" />
  <text class="label" x="1185" y="118">交流广场</text>
  <text class="label" x="1185" y="156">模块</text>

  <rect class="module" x="1320" y="60" width="150" height="150" />
  <line class="line" x1="1395" y1="210" x2="1395" y2="260" />
  <text class="label" x="1395" y="118">消息中心</text>
  <text class="label" x="1395" y="156">模块</text>

  <rect class="module" x="1530" y="60" width="150" height="150" />
  <line class="line" x1="1605" y1="210" x2="1605" y2="260" />
  <text class="label" x="1605" y="118">个人中心</text>
  <text class="label" x="1605" y="156">模块</text>

  <rect class="module" x="45" y="820" width="140" height="150" />
  <line class="line" x1="115" y1="760" x2="115" y2="820" />
  <text class="label" x="115" y="878">题目管理</text>
  <text class="label" x="115" y="916">模块</text>

  <rect class="module" x="230" y="820" width="140" height="150" />
  <line class="line" x1="300" y1="760" x2="300" y2="820" />
  <text class="label" x="300" y="860">测试用例</text>
  <text class="label" x="300" y="898">管理</text>
  <text class="label" x="300" y="936">模块</text>

  <rect class="module" x="415" y="820" width="140" height="150" />
  <line class="line" x1="485" y1="760" x2="485" y2="820" />
  <text class="label" x="485" y="878">竞赛管理</text>
  <text class="label" x="485" y="916">模块</text>

  <rect class="module" x="600" y="820" width="140" height="150" />
  <line class="line" x1="670" y1="760" x2="670" y2="820" />
  <text class="label" x="670" y="878">教学分析</text>
  <text class="label" x="670" y="916">模块</text>

  <rect class="module" x="785" y="820" width="140" height="150" />
  <line class="line" x1="855" y1="760" x2="855" y2="820" />
  <text class="label" x="855" y="878">用户管理</text>
  <text class="label" x="855" y="916">模块</text>

  <rect class="module" x="970" y="820" width="140" height="150" />
  <line class="line" x1="1040" y1="760" x2="1040" y2="820" />
  <text class="label" x="1040" y="878">系统配置</text>
  <text class="label" x="1040" y="916">模块</text>

  <rect class="module" x="1155" y="820" width="140" height="150" />
  <line class="line" x1="1225" y1="760" x2="1225" y2="820" />
  <text class="label" x="1225" y="878">操作日志</text>
  <text class="label" x="1225" y="916">模块</text>

  <rect class="module" x="1340" y="820" width="140" height="150" />
  <line class="line" x1="1410" y1="760" x2="1410" y2="820" />
  <text class="label" x="1410" y="878">论坛审核</text>
  <text class="label" x="1410" y="916">模块</text>

  <rect class="module" x="1525" y="820" width="140" height="150" />
  <line class="line" x1="1595" y1="760" x2="1595" y2="820" />
  <text class="label" x="1595" y="878">判题观测</text>
  <text class="label" x="1595" y="916">模块</text>

  <text class="caption" x="900" y="1035">系统功能结构图</text>
</svg>
